/* XPM */
static char *StampZ_new[] = {
/* columns rows colors chars-per-pixel */
"55 64 256 2 ",
"   c #010101",
".  c #04030B",
"X  c #09060C",
"o  c #080A0B",
"O  c #1C0C06",
"+  c #1A0C0B",
"@  c #160A06",
"#  c #18140A",
"$  c #040513",
"%  c #060914",
"&  c #0A0C15",
"*  c #07091B",
"=  c #090A1C",
"-  c #080617",
";  c #170A18",
":  c #0B121A",
">  c #0B1719",
",  c #131D1B",
"<  c #240B0B",
"1  c #280B0A",
"2  c #380C0C",
"3  c #280A16",
"4  c #390915",
"5  c #271115",
"6  c #361713",
"7  c #172218",
"8  c #0C231F",
"9  c #252517",
"0  c #38341B",
"q  c #090B23",
"w  c #0A0D2B",
"e  c #060823",
"r  c #0A142B",
"t  c #0B1726",
"y  c #15192A",
"u  c #0B1333",
"i  c #0B1839",
"p  c #171C36",
"a  c #0D0B2C",
"s  c #251C3B",
"d  c #310E28",
"f  c #0C2738",
"g  c #16243B",
"h  c #192D29",
"j  c #2A2E37",
"k  c #45080A",
"l  c #4B0819",
"z  c #4E3816",
"x  c #43162F",
"c  c #4D2934",
"v  c #6A2220",
"b  c #1E462A",
"n  c #33492F",
"m  c #35522E",
"M  c #6D5228",
"N  c #536636",
"B  c #6F7035",
"V  c #67491C",
"C  c #0B1748",
"Z  c #0A1A57",
"A  c #15184C",
"S  c #2A1D56",
"D  c #0C2449",
"F  c #132748",
"G  c #123A46",
"H  c #0C2656",
"J  c #182B55",
"K  c #123051",
"L  c #2A2D51",
"P  c #0D1B64",
"I  c #121D7E",
"U  c #2F1B72",
"Y  c #12346B",
"T  c #2D2F6B",
"R  c #48246F",
"E  c #285746",
"W  c #175171",
"Q  c #2C6F6F",
"!  c #20595C",
"~  c #54704E",
"^  c #6A674B",
"/  c #6D6B57",
"(  c #756D53",
")  c #746D5A",
"_  c #797A4A",
"`  c gray49",
"'  c #737262",
"]  c #625455",
"[  c #952621",
"{  c #EF000E",
"}  c #F00810",
"|  c #F01712",
" . c #F0020F",
".. c #F02613",
"X. c #F13A15",
"o. c #C4382B",
"O. c #B2562A",
"+. c #986F2B",
"@. c #AC7234",
"#. c #905320",
"$. c #F14717",
"%. c #F15418",
"&. c #F25C19",
"*. c #F2691A",
"=. c #F2771C",
"-. c #CF7532",
";. c #DA5633",
":. c #A43947",
">. c #A77650",
",. c #936362",
"<. c #EE7144",
"1. c #DD5E5C",
"2. c #378D6B",
"3. c #548F51",
"4. c #55A951",
"5. c #729167",
"6. c #619764",
"7. c #68C177",
"8. c #8B8739",
"9. c #AC9238",
"0. c #F3881E",
"q. c #F3911F",
"w. c #DC9E3F",
"e. c #EE942D",
"r. c #D5AC3B",
"t. c #F3A721",
"y. c #F4BA23",
"u. c #F1AC3A",
"i. c #F0B01E",
"p. c #F1C11F",
"a. c #F6E31B",
"s. c #F2E017",
"d. c #F7E30E",
"f. c #F4CC24",
"g. c #F4C324",
"h. c #F5DB26",
"j. c #F4D325",
"k. c #FFC43E",
"l. c #F2E124",
"z. c #F5E429",
"x. c #F5EC29",
"c. c #F2E924",
"v. c #F5F62A",
"b. c #FFF43C",
"n. c #FFFB3C",
"m. c #A88D4F",
"M. c #83827F",
"N. c #90906C",
"B. c #9C9456",
"V. c #CE8B51",
"C. c #E99451",
"Z. c #CBAF46",
"A. c #EFB64E",
"S. c #EF8D6F",
"D. c #DF9C6A",
"F. c #F2CA49",
"G. c #F6C96A",
"H. c #F1E774",
"J. c #F1E66D",
"K. c #F8ED4A",
"L. c #112F8F",
"P. c #2E368C",
"I. c #1437AB",
"U. c #242097",
"Y. c #481A88",
"T. c #4D2C8A",
"R. c #692898",
"E. c #7512A6",
"W. c #682CA6",
"Q. c #5C1BA5",
"!. c #1A5289",
"~. c #2A5394",
"^. c #296993",
"/. c #1551B0",
"(. c #2E53B6",
"). c #3275AE",
"_. c #1D67A3",
"`. c #7C7685",
"'. c #6E6CB3",
"]. c #5862A3",
"[. c #266DCA",
"{. c #2C56C8",
"}. c #447FCD",
"|. c #A02DB0",
" X c #CA29B5",
".X c #9667A6",
"XX c #D57095",
"oX c #EE56B1",
"OX c #EF68A4",
"+X c #EF76AB",
"@X c #D85CA3",
"#X c #2F8E90",
"$X c #298AAB",
"%X c #3EAFA4",
"&X c #5EB0A3",
"*X c #69D09E",
"=X c #2E88D0",
"-X c #5391D5",
";X c #5E9BDD",
":X c #848483",
">X c #8B8B8B",
",X c #888788",
"<X c #949493",
"1X c #9A9A98",
"2X c #8D8D91",
"3X c #A59E95",
"4X c #A3A29F",
"5X c #A2AC8C",
"6X c #938BB4",
"7X c #ADADA9",
"8X c #A8A7A3",
"9X c #B0AFAB",
"0X c #B4B1AC",
"qX c #BBB5AD",
"wX c #BAB9B5",
"eX c #8CACB1",
"rX c #D08E8E",
"tX c #F18A94",
"yX c #EB8AB2",
"uX c #CAB7B2",
"iX c #E8A8A3",
"pX c #9ECE92",
"aX c #EEE79D",
"sX c #F0E99F",
"dX c #C3C2BD",
"fX c #C8C2B3",
"gX c #D6C9AD",
"hX c #F0D9A2",
"jX c #8798CC",
"kX c #A691CE",
"lX c #C6C6C1",
"zX c #CCCAC5",
"xX c #CAC9C5",
"cX c #D3D2CE",
"vX c #DBDAD4",
"bX c #DBDAD5",
"nX c #E0DFD9",
"mX c #EDEACD",
"MX c #E4E3DD",
"NX c #E8E6DA",
"BX c #F3F0D3",
"VX c #E6E5E1",
"CX c #E8E7E2",
"ZX c #EBEAE5",
"AX c #ECEBE5",
"SX c #EDECEA",
"DX c #E7E7EF",
"FX c #F0EFE9",
"GX c #F0EFE6",
"HX c #F3F2EC",
"JX c #F2F1E7",
"KX c #EBEBF1",
"LX c #F6F6F1",
"PX c #FCFBF5",
"IX c #F8F7F2",
"UX c #EEF2EE",
/* pixels */
":X:X:XzXSXlX` 4XMXdX` <XbXzX:X0XMXdX1X>X1X1X>X,X7XwX1X`.9XSX0X` 8XVX0X`.<XMXlX:X>XlXlX>X:X7XwX<X:X8XcXwX:X:X>X",
"4XcXcXSXSXSXdXvXHXSXwXcXHXSXvXVXSXHXcXlXVXbXlXdXSXSXvXdXvXSXSXwXbXSXVX9XdXSXCXwXdXSXSXlX0XMXSXcX7XbXFXSXwX7X<X",
"VXHXHXSXSXSXHXSXSXSXHXSXSXSXSXSXSXSXSXSXSXSXSXSXCXCXSXFXSXVXSXSXVXVXVXSXSXMXMXSXSXVXMXSXCXMXMXSXFXSXSXVXNXMX8X",
"SXSXSXSXSXSXHXHXHXHXHXHXHXHXHXHXHXHXHXHXHXHXHXHXHXHXHXFXHXHXHXFXSXHXHXSXSXFXSXSXSXSXSXSXSXSXSXHXHXHXSXMXMX7X:X",
"dXSXSXSXSXvXdXlXlXlXlXlXlXlXlXlXlXlXlXlXlXlXlXlXlXlXzXzXlXdXdXlXlXlXlXdXdXdXuXuXdXdXdXdXdXdXdXdXlXlXMXNXNXzX<X",
"<XCXSXSXPXM.                                        o > t i - - ; ; .                               7XHXMXSXcX",
"vXSXSXCXPXM.                                      . & o Y ~.L & - ; ;                               7XPXSXSXdX",
"HXSXSXCXPXM.                                      o o r Y T L p - - ; ;                             7XIXSXuX>X",
"zXSXSXCXPX:X                                    o o - H H g j L t - - ; &                           7XIXSX0X:X",
">XMXSXMXPXM.                                    o t D H f G b g F y = - ; -                         7XIXCXCXwX",
"lXSXVXMXPXM.                                    & i D K G ! E j s s t % - ; -                       7XHXVXSXnX",
"SXSXSXMXPXM.                                  % t i f G W #XQ E j j g : % & ; X                     7XIXSXdX<X",
"VXSXSXCXPXM.                                & i i r f ! #X#X2.2.E j s g & % & ; X                   7XPXSX7X:X",
"4XMXSXCXPX:X                              o t i r f G W $XQ #X7.Q b j j y : & & ; X                 7XIXCXVX0X",
"4XMXSXVXPXM.                            . w t t t f W ^.#X#X2.4.4.E b j j y : & ; ; X               7XIXMXFXzX",
"SXSXSXVXPXM.                            q w = t f G W ^.#X%X*X6.6.4.E b j j y : : ; ;               7XHXSXMX0X",
"CXSXSXVXPX:X                          q w = t f f ! W !.$X%X*X*X3.4.4.E b j c y > > ; ;             7XHXSXwX` ",
"8XCXSXVXPX:X                        q w = : r f G W W ^.$X%X*X&X5.3.4.3.m h c c y 8 , ; <           7XHXSXMX7X",
"8XCXSXSXPX:X                      = w = = r f f G W !.^.).&XpX7.N.5.3.3.~ m h c c y , , 5 5         7XIXCXHXnX",
"MXSXSXSXPX:X                    = w - % u i F K Y !.~.~.$X&XpXpX5.' 5.~ ~ ] n h c c 7 7 , 5 5       7XIXSXSXzX",
"SXSXSXSXPX:X                  = - - % t i i F K !.~.!.).).eXgX5XN.' ' 5.N ^ ^ n h c c 9 8 7 6 5     7XIXSX0X:X",
"7XMXSXCXPX:X                = * - . : p i D F Y T P.~.).).6XgXqX3XN.) ,._ N ^ ^ n 0 M c 9 7 9 6 5   7XIXSXzX<X",
":XvXHXCXPX:X              = * - o : t f p F K T T T ~.(.].6XuXiXrXm.m.,.>.5.N _ B n n M c 9 7 9 6 O 7XPXCXFXvX",
"cXSXSXVXPXM.          . = * - . : t t g g K J T T ~.~.].'.6XiXiXrXD.V.>.>.m.8.B 8.B n N B 0 9 7 9 2 uXIXSXMXlX",
"HXSXSXCXPXM.        . = - - . . > t g g F J T S T P.T.].'..XyXyXXXrXD.V.@.m.Z.8.8.m.8.n B M 0 9 7 6 uXIXSX7X:X",
"zXSXSXVXPXM.      . % - .   . : > y g i J T S S T.T.T.].W..XyXyXXXXXS.V.>.9.Z.Z.9.9.Z.8.0 M V z 9 # wXHXSXlX<X",
">XnXSXMXPXM.    . - - .     & > y s u F T T S R Y.T.W.R.|.@X+X+X+XXX1.S.V.@.9.Z.F.r.r.Z.+.0 M V z # 0XIXSXFXlX",
"dXSXSXMXPX:X  o - - .     & > t s i i L T S U Y.Y.R.R.R.|.@XoX+X+XtX1.S.C.V.+.w.k.F.r.A.u.+.0 #.M z qXHXVXHXvX",
"SXSXSXMXPXM.  - - .   X & 8 t s g r L T S S R R T.R.E.|.|.oXoXOXOXtXtXS.C.A.w.+.e.F.K.F.F.k.+.z +.M fXHXSXdX<X",
"wXSXSXVXPX:X  - .     & 8 > s g f s T S S U Y.Y.W.E.E.|. XoXoXOXOXtXiXG.G.A.G.w.#.e.F.F.F.F.k.#.z +.gXHXSXwX:X",
"2XMXSXCXPX:X  .   X o > > y f f p J T P U U.U Y.Q.Q.E.|. XoXyXOXyXiXhXhXhXG.G.G.@.z O.-.e.A.F.u.M z gXHXSXMX1X",
"zXSXSXCXPX:X    X . & % % t f u i H Z P L.I L.U.U.U.Q.W.E.kXyX+XiXiXiXiXS.S.C.C.C.V 9 #.O.-.u.u.e.z 0XIXSXSX0X",
"HXSXSXSXPX:X  & . . . - w K i u C Z P L.L.L.I.L.L./.I.I.(.}.W..X.XXXtXtXS.S.S.1.<.C.[ v O.O.@.e.-.#.uXHXGXuX2X",
"vXSXSXSXPX:X  & X - - e H K i C Z P L./.L././.I./.{.(.{.-X;X'.jX.X.X.X,.,.:.:.o.;.<.<.;.;.<.-.-.e.-.gXUXFX0X:X",
"<XMXSXSXPX,X  . - * e H W C C Z P L.[././.[.[.[.;X-XjXjXjX.X`.`.] c x x d 4 l l l v [ [ o.o.;.;.<.e.hXSXSXSXwX",
"7XCXSXCXPX,X  - * a P !.H C Z Y L.=X=X=X-X-X}.].].].~.T T S S S s x x x l l l l 4 k k k k k l v v [ uXUXCXFXCX",
"SXSXSXCXPX:X  e a P _.!.Y !.~.~.^.).~.W ^.!.Z H Z Z H C C A s s d d d 4 4 4 4 4 2 2 2 2 2 2 2 k l k uXHXSXnXdX",
"nXSXSXSXPX2Xw J Y ^.^.Y Y J F i i D i u Y H i C C C C i i C y d d d 3 3 3 3 1 1 < < < < < 1 2 2 k k uXHXFX7X:X",
"1XNXSXSXPX2X* t w w w * * * e q t u w w C i w u u u i u u i y ; d 3 3 3 1 1 < < < < O O < < 1 1 1 O 0XIXSXzX<X",
"8XSXSXCXPX:X  . . * - - = * - = - q w = i u q w w w u w w w y ; 3 3 3 3 < < < < O O O O O < < < < @ 0XIXCXSXwX",
"CXSXSXVXPX:X  X . - - - - - - - = = = = t t = q w w w w w w ; ; 3 < < < < O O O O O O O O O O O < @ 9XIXSXnX9X",
"SXSXSXVXPX:X  . . . - . . . - - % % - % t t = = - w w w w - ; ; ; < < < O O O O O O O O O O O O O @ 0XIXSX4X:X",
"lXSXSXVXPX:X      . . . . . . . - - - - t t * - - - w w - - ; ; ; ; O O O O + + + + + @ O O O O O @ 0XIXSXlX<X",
"<XSXSXVXPXM.        . . . . . . - - - - - = - * * * w - - - ; ; ; ; O + + + + + + + @ @ @ @ @ @ O o 9XPXCXFXMX",
"cXSXSXVXPX:X  o         . . . . X - - % : - % - - - - - - - ; ; ; ; O O O O O # O # # O O O O O # o 0XIXSXMXzX",
"HXSXSXVXPX`                             . . . . . . - - . . . . .                                   8XFXVXdX:X",
"zXSXSXCXHX0X^ ^ ^ ^ ^ ^ ^ ^ ^ / ^ ^ ^ ^ / / / / / / / / / ) ) ) ( ( ( ( ( ( ( ( ( ( ( ( ( ( ( ( ( ^ fXVXMXcX<X",
"4XSXSXSXSXBXb.b.b.b.b.b.b.b.n.n.n.b.b.b.b.b.b.b.b.b.b.b.b.b.b.b.b.b.b.b.b.b.b.b.n.n.n.n.n.b.b.b.b.v.sXSXNXSXzX",
"cXSXSXSXSXmXl.l.h.h.h.h.h.c.p.i.j.j.l.c.l.l.l.l.l.l.h.l.l.l.l.l.l.l.l.l.l.h.l.h.i.i.p.p.f.l.l.l.l.s.aXKXSXFXzX",
"HXSXSXSXSXmXz.l.z.z.z.z.x.t.%.t.X.y.h.y.z.z.x.z.z.z.z.z.z.z.z.z.z.z.z.z.z.z.v.=.%.t.X.} y.x.z.z.z.a.aXDXSXdX<X",
"uXVXSXSXSXmXz.l.z.z.z.z.v.%.$.v.q.j.&.X.x.x.j.l.z.x.h.x.h.h.v.h.h.x.h.z.h.h.x.t.v.t. .0.v.z.z.z.z.a.aXSXSX9X:X",
":XvXHXSXSXmXz.l.z.z.l.z.v.t.{ %.v.t.} &.z.=.*.$.0.t...0.%.X.t.X.%.f.%.$.=.X.j.v.y.{ *.v.z.z.z.z.z.a.sXKXSXSXwX",
"dXSXSXSXSXmXz.l.z.z.z.x.g.x.t.{ t.g.| x.t...f.| y.g.} *.q.{ t.%.%.x.&.X.g. .f.j.} %.v.h.z.z.z.z.z.a.aXKXSXHXMX",
"SXSXSXSXSXmXz.l.z.z.z.v.&.=.v.| t.=.| y.%.X.*. .g.0.} x.$.$.x.| *.z...0.=...f.| ..h.t.*.x.z.z.z.z.a.aXSXSXdX1X",
"MXSXSXSXSXmXz.l.z.z.z.x.t.0.=.=.v.t.%.f.t.*.q.%.y.q.0.v.*.y.x.*.q.g.| =.&.j.t.%.0.0.&.t.x.z.z.z.z.a.sXKXGX0X:X",
"1XVXSXSXSXmXz.l.z.z.z.z.j.f.g.f.g.f.f.f.f.j.f.f.f.f.f.g.j.g.g.f.h.&.| f.f.g.f.j.f.g.j.f.l.z.z.z.z.a.sXKXSXSXcX",
"1XMXSXSXSXmXz.l.z.z.z.z.h.h.h.h.h.h.h.h.h.h.h.h.h.h.h.h.h.h.h.h.y.&.&.y.h.h.h.h.h.h.h.h.z.l.l.z.z.a.sXKXSXSXCX",
"cXSXSXSXSXmXz.z.z.z.z.z.z.z.z.z.z.z.z.z.z.z.z.z.z.z.z.z.z.z.z.z.z.v.x.z.z.z.z.z.z.z.z.z.z.z.z.z.z.a.sXKXSXCXwX",
"cXSXSXSXSXmXa.a.a.a.a.a.a.a.a.a.a.a.a.a.a.a.a.a.a.a.a.a.a.a.a.a.a.a.a.a.a.a.a.a.a.a.a.a.a.a.a.a.a.d.aXKXHXwX,X",
"<XMXSXSXSXNXH.H.H.H.H.H.H.H.H.H.H.H.H.H.H.H.H.H.H.H.H.H.H.H.H.H.H.H.H.H.H.H.H.H.H.H.H.H.H.H.H.H.H.J.mXSXSXcX<X",
"1XCXSXSXSXSXKXSXDXKXKXKXKXKXKXKXKXKXKXKXKXKXKXKXKXKXKXKXSXSXSXSXKXKXKXKXKXKXKXKXKXKXKXKXKXKXKXKXKXKXSXSXSXSXzX",
"8XvXNXSXSXMXvXSXSXMXMXSXSXSXGXGXSXSXJXSXSXSXMXSXSXSXSXSXSXSXGXGXSXSXSXHXSXNXSXJXSXSXSXHXSXSXSXJXGXSXSXFXFXSXzX",
">X:X7XSXSX4X2XMXSX4X1XMXCXzX4XzXHXvX8XvXHXzX,XwXCXMX7X0XSXSX9XwXSXHXcX8XvXHXvX7XvXHXMXwXvXHXCX0XzXHXSXzXzXdX>X",
">X>X>X8X4X>X>X8X8X>X,X1X1X>X:X>X0X4X:X1XwX1X:X>X4X4X>X>XwXwX:X2XvXMX9X` 0XMX8X` 7XSXlX` 8XSXzX:X<XvXvX2X:X<X>X"
};
